<svg width="85" height="84" viewBox="0 0 85 84" fill="none" xmlns="http://www.w3.org/2000/svg">
<path d="M77.8914 33.4813H57.0431C56.6848 33.4813 56.3916 33.7739 56.3916 34.1314V38.0322C56.3916 38.3897 56.6848 38.6823 57.0431 38.6823H77.8914C78.2497 38.6823 78.5429 38.3897 78.5429 38.0322V34.1314C78.5429 33.7739 78.2497 33.4813 77.8914 33.4813ZM66.9787 44.5334H57.0431C56.6848 44.5334 56.3916 44.8259 56.3916 45.1835V49.0842C56.3916 49.4418 56.6848 49.7344 57.0431 49.7344H66.9787C67.337 49.7344 67.6302 49.4418 67.6302 49.0842V45.1835C67.6302 44.8259 67.337 44.5334 66.9787 44.5334ZM39.8026 26.2081H36.2763C35.7714 26.2081 35.3642 26.6144 35.3642 27.1182V47.272C35.3642 47.5646 35.5026 47.8328 35.7388 48.0034L47.865 56.8288C48.2722 57.1214 48.8423 57.0401 49.1355 56.6338L51.2284 53.7814V53.7732C51.5216 53.3669 51.432 52.7981 51.0248 52.5055L40.7066 45.0616V27.1182C40.7147 26.6144 40.2994 26.2081 39.8026 26.2081Z" fill="#F7F7F7"/>
<path d="M66.4737 54.7647H61.7666C61.3105 54.7647 60.8789 55.0004 60.6346 55.3905C59.6003 57.0239 58.395 58.5354 57.0106 59.9169C54.6244 62.298 51.8474 64.1671 48.7608 65.4674C45.5603 66.8164 42.1643 67.499 38.6625 67.499C35.1525 67.499 31.7565 66.8164 28.5641 65.4674C25.4776 64.1671 22.7005 62.298 20.3144 59.9169C17.9282 57.5359 16.0551 54.7647 14.7521 51.6848C13.4002 48.4992 12.7161 45.1104 12.7161 41.6079C12.7161 38.1053 13.4002 34.7247 14.7521 31.531C16.0551 28.451 17.9282 25.6799 20.3144 23.2988C22.7005 20.9177 25.4776 19.0486 28.5641 17.7484C31.7565 16.3994 35.1606 15.7168 38.6625 15.7168C42.1725 15.7168 45.5684 16.3994 48.7608 17.7484C51.8474 19.0486 54.6244 20.9177 57.0106 23.2988C58.395 24.6803 59.6003 26.1919 60.6346 27.8253C60.8789 28.2154 61.3105 28.451 61.7666 28.451H66.4737C67.0356 28.451 67.394 27.8659 67.1415 27.3702C61.8317 16.8301 51.0655 9.97944 39.0452 9.84128C21.4463 9.62187 6.82813 23.9977 6.79556 41.5429C6.76298 59.1205 21.0392 73.3826 38.6543 73.3826C50.8294 73.3826 61.7747 66.5076 67.1415 55.8456C67.394 55.3498 67.0275 54.7647 66.4737 54.7647Z" fill="#F7F7F7"/>
</svg>
