<svg width="480" height="472" viewBox="0 0 480 472" fill="none" xmlns="http://www.w3.org/2000/svg">
<g opacity="0.5">
<path opacity="0.5" fill-rule="evenodd" clip-rule="evenodd" d="M133.486 75.5829C136.212 71.519 141.271 61.1982 145.107 59.7461C147.578 58.8108 146.858 68.4858 146.888 70.3306C147.007 77.4679 146.343 84.56 145.522 91.6374C144.043 104.401 139.209 115.769 132.578 126.632C129.166 132.222 125.163 137.88 119.62 141.368C117.068 142.974 113.998 143.243 111.478 144.627C108.544 146.238 110.142 144.936 108.819 148.133C106.983 152.572 106.395 158.3 105.545 163.037C101.643 184.782 92.1969 299.732 93.8346 321.85C93.98 323.811 91.3655 324.28 91.235 321.886C90.5412 309.196 96.5443 221.315 99.5729 192.576C102.602 163.836 105.666 138.446 108.739 128.503C112.468 116.44 119.201 101.934 124.806 90.6845C127.409 85.4583 130.247 80.4122 133.486 75.5829Z" fill="#69A1AC"/>
<path opacity="0.5" fill-rule="evenodd" clip-rule="evenodd" d="M153.719 216.538C160.812 211.093 168.489 221.369 162.071 226.814C158.522 229.824 154.813 228.753 152.725 226.245C151.369 227.973 150.1 229.78 148.881 231.305C145.166 235.955 141.655 240.716 138.3 245.588C131.33 255.709 125.356 266.402 119.111 276.899C112.947 287.259 106.833 297.672 101.246 308.295C96.5134 317.295 90.2054 327.882 88.585 337.749C91.0435 316.824 100.372 296.711 111.481 278.263C122.5 259.968 135.144 239.987 152.205 225.548C150.469 222.878 150.421 219.067 153.719 216.538Z" fill="#C1DEE2"/>
<path opacity="0.5" fill-rule="evenodd" clip-rule="evenodd" d="M19.1233 165.504C23.0926 166.316 29.5783 175.704 32.8501 179.281C36.7385 183.532 40.2662 188.063 43.5915 192.81C50.7501 203.028 57.1522 213.891 62.5962 225.22C71.4714 243.689 78.5815 262.647 83.7417 282.758C86.9004 295.069 88.9455 307.828 90.1576 320.499C90.3865 322.888 92.7826 341.312 89.3299 341.808C86.2247 342.255 87.1838 327.819 87.034 325.855C85.3406 303.701 80.2676 282.146 73.2111 261.265C71.6741 256.716 70.2462 251.144 67.7882 247.051C66.018 244.102 67.7755 245.131 64.6647 244.015C61.9936 243.056 58.9503 243.29 56.2151 242.117C50.273 239.569 45.5152 234.623 41.3445 229.648C33.2396 219.979 26.8168 209.518 23.4689 197.129C21.6117 190.26 19.9051 183.35 18.958 176.268C18.713 174.438 16.5668 164.982 19.1233 165.504Z" fill="#69A1AC"/>
<path opacity="0.5" fill-rule="evenodd" clip-rule="evenodd" d="M34.787 9.30236C49.7383 36.4134 62.0247 66.1942 69.9581 96.3577C74.7648 114.633 78.1263 133.387 81.4661 152.005C86.6374 180.833 91.5287 209.658 92.9201 238.998C94.3199 268.508 97.0879 302.544 87.8462 330.967C92.4625 302.11 88.0674 271.394 87.2893 242.359C86.9174 228.497 85.8398 214.772 84.4261 200.991C83.0543 187.624 80.8132 174.32 78.7262 161.057C77.7096 154.598 76.6419 148.149 75.5549 141.703C75.2304 139.78 75.0933 134.073 73.9265 132.76C72.7523 131.437 66.7608 130.898 64.8798 129.928C61.0921 127.973 57.5292 125.197 54.3759 122.264C48.3311 116.641 43.0724 109.294 38.9218 102.052C29.3185 85.2943 25.4791 64.8438 25.6731 45.4362C25.7104 41.6681 31.5062 1.09189 29.1785 0.533119C29.3187 0.361506 29.4512 0.184311 29.5762 0C31.3385 3.08504 33.0677 6.19098 34.787 9.30236Z" fill="#89C5CC"/>
<path opacity="0.5" fill-rule="evenodd" clip-rule="evenodd" d="M196.161 107.081C196.392 106.733 197.893 104.313 197.137 104.468C198.676 104.153 195.02 107.137 198.855 105.306C197.034 107.104 198.085 109.441 198.11 111.861C198.149 115.791 197.52 119.688 196.812 123.534C195.694 129.612 194.028 135.522 191.609 141.176C186.337 153.496 177.386 165.357 166.759 173.06C161.513 176.863 156.371 178.158 150.388 179.909C146.609 181.015 146.309 183.059 144.303 186.894C140.126 194.88 136.024 202.838 132.341 211.094C127.943 220.953 123.674 230.822 119.646 240.854C106.079 274.647 95.0361 309.656 89.2368 345.888C89.0948 324.536 93.8188 302.547 99.7775 282.196C104.118 267.368 109.769 253.075 115.796 238.927C117.256 235.499 119.469 231.09 120.09 227.306C120.524 224.654 119.196 222.104 118.588 219.311C116.218 208.434 116.388 196.249 118.469 185.314C120.764 173.256 127.4 167.66 138.625 165.952C142.731 165.327 147.949 165.556 151.713 163.726C155.814 161.733 157.506 155.182 159.838 150.976C166.102 139.68 173.545 128.846 182.091 119.328C184.457 116.692 187.002 114.26 189.702 112.007C191.404 110.585 195.001 108.833 196.161 107.081Z" fill="#89C5CC"/>
<path opacity="0.5" fill-rule="evenodd" clip-rule="evenodd" d="M70.2876 322.828H110.126C111.917 322.828 113.369 324.347 113.369 326.219C113.369 326.385 113.357 326.55 113.334 326.714L110.255 348.545C109.316 355.2 103.855 360.13 97.421 360.13H82.9924C76.5586 360.13 71.0969 355.2 70.1582 348.545L67.0791 326.714C66.8178 324.861 68.0424 323.138 69.8144 322.865C69.9711 322.84 70.1293 322.828 70.2876 322.828Z" fill="#C1DEE2"/>
<g opacity="0.504511">
<path opacity="0.504511" fill-rule="evenodd" clip-rule="evenodd" d="M416.981 371.31C422.942 417.93 278.381 448.339 153.954 427.117C29.5268 405.896 -27.5545 323.023 31.8201 278.866C91.1947 234.708 411.021 324.69 416.981 371.31Z" fill="#F2F2F2"/>
</g>
<path opacity="0.2" fill-rule="evenodd" clip-rule="evenodd" d="M123.18 65.1997C125.458 64.0189 128.494 65.3884 127.227 68.51C125.87 71.8528 120.854 71.8941 118.021 71.8278C118.305 71.8123 119.218 68.7469 119.53 68.2837C120.452 66.9172 121.78 65.9269 123.18 65.1997ZM96.9558 126.108C96.1513 126.827 96.8903 126.175 96.9558 126.108V126.108ZM125.827 80.7198C127.189 81.7975 127.253 83.7015 126.139 84.9909C124.813 86.5259 122.394 86.4713 120.588 86.3227C119.77 86.2554 115.408 85.896 116.442 85.1562C116.363 85.1873 116.197 85.2629 116.019 85.3657C115.923 85.7277 115.822 86.0885 115.717 86.4477C115.743 86.4632 115.765 86.4799 115.792 86.4953C115.763 86.4818 115.742 86.4673 115.716 86.4536C114.665 90.0436 113.17 93.4621 111.213 96.6605C111.944 96.3618 112.702 96.1356 113.471 96.0346C115.747 95.7354 120.534 97.5643 117.987 100.704C115.544 103.713 111.745 100.488 108.975 100.044C106.286 103.929 103.321 107.653 100.214 111.252C100.404 111.314 100.571 111.442 100.667 111.642C101.913 110.987 103.211 110.05 104.364 109.796C106.028 109.43 109.44 109.207 110.696 110.748C112.242 112.643 110.583 114.184 108.756 114.549C106.106 115.077 102.639 113.739 100.09 112.835C99.7985 112.888 99.4802 112.8 99.2901 112.559C99.2338 112.54 99.1775 112.521 99.1227 112.503C95.9765 116.084 92.7101 119.548 89.4636 122.935C89.4981 122.933 89.5326 122.931 89.5687 122.929C90.4154 122.354 91.3235 121.882 92.3078 121.634C94.5846 121.058 97.2631 121.054 99.1097 122.759C100.949 124.456 101.6 127.426 99.6949 129.334C95.8822 133.154 90.2719 124.453 88.3498 124.09C85.0506 127.497 81.5623 130.68 78.0192 133.799C78.4215 133.672 78.834 133.578 79.2603 133.536C82.7333 133.19 90.8826 137.594 86.6185 141.934C82.9025 145.716 78.6073 138.443 75.6155 135.9C72.2768 138.807 68.9199 141.694 65.6571 144.694C67.4361 144.204 69.1551 144.131 71.0616 144.726C73.0343 145.343 76.2173 146.884 74.9687 149.644C73.6987 152.449 69.8762 151.175 67.8854 150.285C66.7996 149.8 64.6229 148.162 62.7114 147.472C57.5048 152.563 52.9944 158.169 49.5786 164.772C47.4461 168.894 45.8272 173.299 44.687 177.825C43.9593 180.714 42.5257 185.567 42.8104 189.326C41.4484 181.801 43.9222 172.761 46.5855 166.033C49.0344 159.846 52.6975 154.414 56.9874 149.524C55.9131 146.173 46.8593 141.345 52.2748 138.229C55.1504 136.581 58.0937 139.311 58.7207 142.204C59.1513 144.191 58.4925 146.689 57.7936 148.619C59.1431 147.128 60.5459 145.685 61.9914 144.29C63.989 142.362 66.0345 140.49 68.0995 138.642C64.6998 135.335 61.4854 125.877 66.0466 124.328C72.7821 122.047 69.5332 134.951 69.0622 137.369C68.9288 137.378 68.8249 137.336 68.7484 137.246C68.7862 137.468 68.83 137.705 68.8832 137.943C72.8355 134.424 76.8463 130.973 80.7252 127.37C80.376 127.103 79.8211 126.081 79.385 125.538C78.4007 124.313 77.4589 123.033 76.7709 121.599C75.684 119.334 74.6365 115.72 77.5211 114.386C80.6582 112.932 82.1466 117.019 82.1673 119.458C82.1814 121.144 81.737 122.747 81.5051 124.4C81.4327 124.916 81.7096 127.24 81.0318 126.24C81.0636 126.609 81.0681 126.876 81.0522 127.065C81.7485 126.415 82.4396 125.758 83.1262 125.096C83.0945 125.012 83.0709 124.921 83.0656 124.815C83.0292 124.088 83.7358 123.808 84.2312 124.021C85.1373 123.129 86.0345 122.226 86.9157 121.305C88.7834 119.355 90.6782 117.348 92.5599 115.299C92.1521 114.936 92.3146 114.434 91.9332 114.049C91.5524 113.664 90.8021 113.452 90.3543 113.095C89.2279 112.197 88.2942 110.888 87.619 109.6C86.5044 107.471 85.0648 103.005 88.3245 101.988C91.6844 100.939 93.3874 105.238 93.6021 107.926C93.6439 108.447 93.265 113.139 92.9759 114.844C96.4578 111.035 99.8824 107.084 102.985 103.065C102.045 103.056 99.3805 101.063 98.8418 100.519C97.5276 99.1923 95.4388 96.2599 97.7448 94.7063C99.7952 93.3283 102.321 95.3212 103.196 97.2589C103.34 97.578 103.847 100.548 103.886 101.881C105.17 100.176 106.395 98.4619 107.535 96.742C108.295 95.5985 109.006 94.4248 109.67 93.2262C109.511 93.1324 109.36 92.9689 109.218 92.7655C105.8 92.1665 101.444 86.6458 105.461 84.722C107.373 83.8073 109.445 85.6923 110.381 87.236C110.573 87.5519 110.883 89.1401 111.135 90.3928C113.048 86.4222 114.51 82.2189 115.623 77.9095C115.326 77.8331 115.074 77.5978 115.041 77.193C113.382 76.2141 112.071 75.3989 110.914 73.5155C110.195 72.3456 108.9 69.6726 111.015 69.022C113.768 68.1754 115.494 72.5275 115.718 74.6714C115.745 74.9203 115.743 75.6441 115.734 76.3075C115.829 76.2939 115.926 76.2954 116.021 76.3127C116.654 73.6442 117.16 70.9415 117.563 68.2343C116.061 67.7345 115.805 59.5653 116.806 58.4016C119.043 55.7958 120.618 59.5574 120.498 61.546C120.356 63.8907 119.328 66.0241 118.106 67.9177C117.975 68.1182 118.012 68.1084 117.978 67.8292C117.959 67.9672 117.915 68.0691 117.848 68.1429C117.911 69.3771 118.033 70.6406 117.974 71.7328C117.803 74.8604 117.45 78.0064 116.937 81.094C116.813 81.8449 116.67 82.5897 116.51 83.3281C117.718 82.2623 119.346 81.3151 119.984 81.0188C121.637 80.2506 124.186 79.4207 125.827 80.7198ZM42.5399 189.03C42.6197 190.035 42.8567 190.952 43.3234 191.703C42.9808 190.844 42.7239 189.95 42.5399 189.03Z" fill="#C1FBD5"/>
<path fill-rule="evenodd" clip-rule="evenodd" d="M27.883 365.23C27.883 379.667 28.9727 391.371 43.5984 391.371C58.2241 391.371 59.3137 379.667 59.3137 365.23" fill="#F2F2F2"/>
<path fill-rule="evenodd" clip-rule="evenodd" d="M47.9494 356.222C47.4133 357.191 46.9353 358.18 46.513 359.183C46.4981 357.117 46.6074 355.035 46.9058 352.925C47.416 349.311 48.1951 345.715 48.9272 342.125C49.4534 339.545 49.4201 334.911 51.4171 332.855C51.9647 332.411 52.0965 333.283 52.0965 333.661C52.1034 333.741 52.095 332.117 51.5634 332.4C48.4041 334.106 47.3804 339.47 46.369 342.156C44.8932 346.077 43.6376 350.084 43.1206 354.163C42.9899 355.193 42.9189 356.223 42.9024 357.252C42.795 356.977 42.6942 356.699 42.5826 356.425C40.7591 351.954 38.2983 347.591 35.2292 343.567C34.4737 342.577 24.9747 332.807 24.2312 334.302C24.3045 334.52 24.4581 334.7 24.6924 334.843C24.7061 334.859 24.7065 334.85 24.6985 334.826C25.2564 335.768 26.8425 337.224 27.3366 338.049C28.58 340.127 29.5464 342.332 30.5284 344.495C32.6033 349.065 34.528 353.682 36.3939 358.308C36.8283 359.386 37.2811 360.458 37.7431 361.526C32.9808 354.344 26.6278 347.824 17.8823 344.091C20.8693 345.68 22.8276 348.669 24.8448 350.958C27.2778 353.719 29.8402 356.405 32.2777 359.163C35.1528 362.416 38.5356 365.842 41.301 369.442C43.9796 375.322 46.5826 381.208 48.1894 387.389C47.531 385.253 48.1378 382.302 48.0251 380.061C47.9356 378.277 47.7362 376.508 47.463 374.742C47.8007 375.538 48.0919 376.335 48.2237 377.077C48.1034 375.833 47.9647 374.597 47.8157 373.368C48.1981 372.217 48.5738 371.143 48.8275 370.258C50.1278 365.72 51.6762 361.26 53.7847 356.913C55.7357 352.892 57.9738 348.922 60.4124 345.073C61.55 343.278 62.7032 341.49 63.8492 339.7C64.5993 338.527 65.3134 336.65 66.3578 335.527C59.6073 341.98 52.2321 348.479 47.9494 356.222Z" fill="#F2F2F2"/>
</g>
<g clip-path="url(#clip0)">
<path fill-rule="evenodd" clip-rule="evenodd" d="M216.471 153.4L262.665 275.556L293.648 378.829H305.882L258.516 153.4L216.471 153.4Z" fill="#DFAC8E"/>
<path fill-rule="evenodd" clip-rule="evenodd" d="M207.169 153.4C206.677 196.327 199.503 254.12 198.357 256.796C197.593 258.58 171.215 281.265 119.224 324.852L127.651 334.273C188.995 296.903 221.087 275.726 223.926 270.742C228.184 263.265 242.047 194.467 253.176 153.4H207.169Z" fill="#F5CDB6"/>
<path fill-rule="evenodd" clip-rule="evenodd" d="M118.151 321.727C115.311 322.785 113.353 323.785 112.279 324.727C110.972 325.874 109.246 327.773 107.101 330.424C108.363 331.997 119.711 346.134 141.145 372.835C145.542 370.857 146.928 368.557 145.302 365.937C143.675 363.317 142.345 361.123 141.31 359.354L133.957 332.212C133.816 331.689 133.295 331.389 132.793 331.541C132.785 331.543 132.776 331.546 132.768 331.549L128.788 332.88C126.034 331.549 124.106 330.197 123.003 328.822C122.107 327.706 121.304 325.782 120.594 323.052L120.594 323.052C120.321 322.005 119.285 321.392 118.279 321.685C118.236 321.697 118.193 321.711 118.151 321.727Z" fill="#E4E4E4"/>
<path fill-rule="evenodd" clip-rule="evenodd" d="M288.638 374.062C287.585 376.999 287.059 379.196 287.059 380.654C287.059 382.427 287.342 385.015 287.907 388.417C289.876 388.417 307.571 388.417 340.991 388.417C342.371 383.652 341.574 381.08 338.602 380.7C335.63 380.32 333.161 379.977 331.195 379.671L306.522 368.179C306.048 367.957 305.491 368.18 305.28 368.676C305.276 368.685 305.272 368.693 305.269 368.702L303.683 372.721C300.932 374.063 298.696 374.733 296.976 374.733C295.578 374.733 293.648 374.144 291.185 372.964L291.185 372.964C290.24 372.511 289.123 372.945 288.69 373.932C288.671 373.975 288.654 374.018 288.638 374.062Z" fill="#E4E4E4"/>
<path fill-rule="evenodd" clip-rule="evenodd" d="M247.529 368.192L305.698 361.597L262.588 153.4H210.489L247.529 368.192Z" fill="#97B4AD"/>
<path fill-rule="evenodd" clip-rule="evenodd" d="M131.256 309.652L169.412 356.838C209.6 310.979 233.03 281.056 239.701 267.069C246.373 253.082 252.37 215.193 257.693 153.4H199.038C196.13 207.762 194.17 236.209 193.158 238.738C192.146 241.268 171.512 264.906 131.256 309.652Z" fill="#B8D9D1"/>
</g>
<path fill-rule="evenodd" clip-rule="evenodd" d="M228.012 40.7986C223.675 35.48 220.739 28.962 221.23 21.6583C222.643 0.614535 250.681 5.24391 256.135 15.865C261.589 26.4861 260.941 53.4274 253.892 55.3257C251.081 56.0828 245.093 54.2283 238.998 50.3902L242.824 78.6667H220.235L228.012 40.7986Z" fill="#F5CDB6"/>
<path fill-rule="evenodd" clip-rule="evenodd" d="M288.338 146.133L316.749 171.298C324.718 174.182 331.314 177.527 336.536 181.333C337.741 182.653 339.131 185.248 333.82 184.429C328.51 183.61 322.889 182.998 322.025 184.847C321.161 186.696 324.24 189.207 322.579 191.666C321.472 193.304 317.069 188.671 309.37 177.764L280.573 162.748L288.338 146.133ZM159.687 135.244L176.357 137.773C158.463 178.335 148.87 199.787 147.578 202.128C144.67 207.395 148.09 216.57 149.426 221.426C142.67 223.465 144.828 212.559 136.285 215.279C128.488 217.762 122.053 223.39 114.331 216.697C113.381 215.875 112.582 213.184 115.599 211.616C123.118 207.71 134.156 200.563 135.872 197.929C138.212 194.337 146.151 173.442 159.687 135.244Z" fill="#F5CDB6"/>
<path fill-rule="evenodd" clip-rule="evenodd" d="M229.36 64.2432L239.689 60.6743C253.701 97.2447 274.598 132.628 309.513 162.516L300.879 178.079C270.194 159.193 241.147 144.523 229.36 116.185C225.404 106.675 229.037 75.6154 229.36 64.2432Z" fill="#C2D1D2"/>
<path fill-rule="evenodd" clip-rule="evenodd" d="M193.882 167.167C223.471 170.444 246.761 170.444 263.752 167.167C265.857 166.761 266.189 163.078 265.213 160.579C250.011 121.662 239.586 87.7051 239.586 60.6742C236.797 62.1435 231.915 62.3637 224.941 61.3348C206.199 89.191 197.584 121.153 193.882 167.167Z" fill="#0C2F76"/>
<path fill-rule="evenodd" clip-rule="evenodd" d="M220.282 59H228.093C229.911 70.1755 235.648 221.508 253.356 271.013H157.539C159.616 225.662 176.003 171.186 192.602 125.6C177.924 139.633 165.131 163.411 154.223 196.935L136.275 192.121C149.62 132.043 177.056 87.8853 218.585 59.6481C218.675 59.431 218.764 59.215 218.853 59H219.544C219.799 58.8294 220.054 58.6594 220.309 58.49L220.282 59Z" fill="#F7F7F7"/>
<path fill-rule="evenodd" clip-rule="evenodd" d="M250.541 4.19962C250.024 3.87698 248.941 3.19645 248.393 2.9498C248.263 2.89045 247.355 2.21317 247.33 2.22175C246.642 2.46424 244.65 3.35953 244.479 4.13314C244.453 4.19176 244.427 4.24676 244.401 4.29482C244.119 4.83096 243.86 5.38044 243.613 5.93658C243.071 7.15741 242.603 8.43336 242.156 9.69928C241.285 12.1647 240.529 14.6876 239.833 17.2162C239.125 19.7902 238.524 22.3944 237.851 24.9791C236.883 28.6983 235.645 32.3264 234.683 36.0441C234.069 38.4179 233.728 40.8197 233.889 43.2629C233.891 43.2923 233.892 43.3213 233.894 43.3511C233.895 43.3633 233.897 43.3754 233.898 43.3876C233.925 43.7632 233.964 44.1397 234.016 44.5173C234.062 44.8402 234.108 45.1643 234.156 45.4883C235.034 43.6589 235.705 41.6432 236.416 39.7299C236.486 39.5426 236.552 39.354 236.617 39.1647C236.846 38.7767 237.08 38.3915 237.317 38.0077C238.808 35.5877 240.306 33.1766 241.736 30.7128C244.309 26.2816 246.857 21.7566 249.907 17.6875C250.807 16.4859 251.729 15.3027 252.618 14.0912C253.124 13.4018 253.617 12.7009 254.094 11.9875C254.435 11.4774 255.917 9.69928 255.381 8.63096C255.106 8.08436 251.883 5.03668 250.541 4.19962Z" fill="#2C2C2C"/>
<path fill-rule="evenodd" clip-rule="evenodd" d="M248.556 3.03897C249.059 3.21563 248.815 2.12171 248.327 1.73676C246.07 -0.046636 237.438 -0.693795 229.926 0.935346C224.894 2.02672 219.042 4.74309 215.023 8.23519C211.4 11.3833 208.908 16.43 207.625 21.3059C206.278 26.4257 206.074 31.7632 206.824 37.0133C206.989 38.1665 207.343 39.2655 207.541 40.3943C207.763 41.6654 207.877 42.8892 208.273 44.1259C208.516 44.8831 208.928 45.6253 209.135 46.3867C209.372 47.2556 209.228 48.0594 209.055 48.9431C208.774 50.3835 208.426 51.821 207.931 53.1966C207.188 55.2624 206.286 57.1971 205.721 59.3408C204.968 62.1931 201.821 71.475 204.121 74.005H247.903C246.801 70.863 243.492 67.1652 242.822 63.8018C242.427 61.8204 242.239 57.4934 242.198 57.3361C241.212 50.2303 239.285 46.8369 238.078 45.6054C236.872 44.3739 235.265 43.9952 235.182 42.927C234.84 38.5089 236.521 34.2757 237.754 30.1524C239.224 25.2381 240.301 20.2018 241.816 15.3042C242.487 13.1354 245.944 2.12171 248.556 3.03897Z" fill="#5B24C9"/>
<path fill-rule="evenodd" clip-rule="evenodd" d="M233.206 8.12164C231.555 13.5948 231.2 16.5164 231.555 23.9947H230.745C229.232 16.9374 230.578 10.2937 232.188 8.12164H233.206ZM211.056 22.2465C214.133 30.0464 215.536 34.6524 224.127 40.9642L223.464 41.4495C214.935 36.3992 212.451 30.3751 210.409 22.5715L211.056 22.2465ZM223.697 14.3091C225.095 25.3802 225.503 31.704 232.783 43.8143L232.008 44.0617C224.516 33.5174 223.328 24.9112 222.974 14.3699L223.697 14.3091ZM215.656 47.1957L216.319 46.3541C225.361 49.3132 224.354 55.4223 235.742 61.6092L234.791 62.2117C224.818 57.9118 222.487 48.6894 215.656 47.1957Z" fill="black" fill-opacity="0.2"/>
<defs>
<clipPath id="clip0">
<rect width="282.353" height="235.017" fill="white" transform="translate(90.3529 153.4)"/>
</clipPath>
</defs>
</svg>
