<svg width="84" height="84" viewBox="0 0 84 84" fill="none" xmlns="http://www.w3.org/2000/svg">
<path d="M31.032 38.834C27.3458 38.834 23.8106 37.3728 21.204 34.7718C18.5975 32.1708 17.1331 28.6431 17.1331 24.9647V13.8693C17.1331 13.1336 17.426 12.4281 17.9473 11.9079C18.4686 11.3877 19.1757 11.0954 19.9129 11.0954H22.6927C23.4299 11.0954 24.137 10.8032 24.6583 10.283C25.1796 9.7628 25.4724 9.05726 25.4724 8.32158C25.4724 7.58591 25.1796 6.88037 24.6583 6.36017C24.137 5.83997 23.4299 5.54773 22.6927 5.54773H19.9129C17.7012 5.54773 15.5801 6.42446 14.0161 7.98506C12.4522 9.54566 11.5736 11.6623 11.5736 13.8693V24.9647C11.5772 28.0984 12.343 31.1845 13.8052 33.9578C15.2674 36.7311 17.3824 39.1088 19.9685 40.8866C22.4531 43.0725 24.4681 45.7381 25.8919 48.7225C27.3156 51.707 28.1185 54.9483 28.2522 58.251C28.2522 63.4007 30.3023 68.3395 33.9514 71.9809C37.6006 75.6222 42.5499 77.668 47.7106 77.668C52.8713 77.668 57.8206 75.6222 61.4698 71.9809C65.1189 68.3395 67.169 63.4007 67.169 58.251V55.0888C69.7894 54.4136 72.073 52.808 73.5919 50.5729C75.1108 48.3378 75.7607 45.6266 75.4197 42.9476C75.0787 40.2686 73.7702 37.8056 71.7396 36.0204C69.7089 34.2352 67.0955 33.2503 64.3892 33.2503C61.6829 33.2503 59.0695 34.2352 57.0389 36.0204C55.0082 37.8056 53.6998 40.2686 53.3588 42.9476C53.0178 45.6266 53.6676 48.3378 55.1865 50.5729C56.7054 52.808 58.9891 54.4136 61.6094 55.0888V58.251C61.6094 61.9293 60.1451 65.457 57.5386 68.058C54.932 70.659 51.3968 72.1202 47.7106 72.1202C44.0244 72.1202 40.4892 70.659 37.8826 68.058C35.2761 65.457 33.8118 61.9293 33.8118 58.251C33.9525 54.9442 34.7641 51.7004 36.1975 48.7157C37.6309 45.731 39.6563 43.0676 42.1511 40.8866C44.7269 39.1026 46.831 36.7222 48.2834 33.9493C49.7357 31.1764 50.493 28.0935 50.4904 24.9647V13.8693C50.4904 11.6623 49.6118 9.54566 48.0478 7.98506C46.4839 6.42446 44.3628 5.54773 42.1511 5.54773H39.3713C38.6341 5.54773 37.927 5.83997 37.4057 6.36017C36.8844 6.88037 36.5915 7.58591 36.5915 8.32158C36.5915 9.05726 36.8844 9.7628 37.4057 10.283C37.927 10.8032 38.6341 11.0954 39.3713 11.0954H42.1511C42.8883 11.0954 43.5954 11.3877 44.1167 11.9079C44.638 12.4281 44.9308 13.1336 44.9308 13.8693V24.9647C44.9308 26.7861 44.5713 28.5896 43.8728 30.2723C43.1744 31.955 42.1506 33.4839 40.86 34.7718C39.5693 36.0597 38.0371 37.0813 36.3508 37.7783C34.6646 38.4753 32.8572 38.834 31.032 38.834ZM64.3892 49.9294C62.9147 49.9294 61.5006 49.3449 60.458 48.3045C59.4154 47.2641 58.8297 45.853 58.8297 44.3817C58.8297 42.9104 59.4154 41.4993 60.458 40.4589C61.5006 39.4185 62.9147 38.834 64.3892 38.834C65.8637 38.834 67.2778 39.4185 68.3204 40.4589C69.363 41.4993 69.9488 42.9104 69.9488 44.3817C69.9488 45.853 69.363 47.2641 68.3204 48.3045C67.2778 49.3449 65.8637 49.9294 64.3892 49.9294Z" fill="#F7F7F7"/>
</svg>
