<svg width="84" height="84" viewBox="0 0 84 84" fill="none" xmlns="http://www.w3.org/2000/svg">
<path d="M42.1511 48.5424C42.8383 48.5424 43.5101 48.3391 44.0816 47.9581C44.653 47.5771 45.0983 47.0356 45.3613 46.402C45.6243 45.7684 45.6931 45.0713 45.559 44.3987C45.425 43.7261 45.094 43.1083 44.6081 42.6234C44.1221 42.1385 43.503 41.8082 42.829 41.6744C42.155 41.5406 41.4563 41.6093 40.8214 41.8717C40.1865 42.1342 39.6438 42.5786 39.262 43.1488C38.8802 43.719 38.6764 44.3894 38.6764 45.0751C38.6764 45.9947 39.0425 46.8766 39.6941 47.5269C40.3457 48.1771 41.2296 48.5424 42.1511 48.5424ZM59.5247 48.5424C60.2119 48.5424 60.8837 48.3391 61.4551 47.9581C62.0265 47.5771 62.4719 47.0356 62.7349 46.402C62.9979 45.7684 63.0667 45.0713 62.9326 44.3987C62.7985 43.7261 62.4676 43.1083 61.9817 42.6234C61.4957 42.1385 60.8766 41.8082 60.2025 41.6744C59.5285 41.5406 58.8299 41.6093 58.1949 41.8717C57.56 42.1342 57.0173 42.5786 56.6355 43.1488C56.2537 43.719 56.0499 44.3894 56.0499 45.0751C56.0499 45.9947 56.416 46.8766 57.0677 47.5269C57.7193 48.1771 58.6031 48.5424 59.5247 48.5424ZM42.1511 62.4117C42.8383 62.4117 43.5101 62.2084 44.0816 61.8274C44.653 61.4464 45.0983 60.9049 45.3613 60.2713C45.6243 59.6377 45.6931 58.9406 45.559 58.268C45.425 57.5954 45.094 56.9776 44.6081 56.4926C44.1221 56.0077 43.503 55.6775 42.829 55.5437C42.155 55.4099 41.4563 55.4786 40.8214 55.741C40.1865 56.0035 39.6438 56.4479 39.262 57.0181C38.8802 57.5883 38.6764 58.2586 38.6764 58.9444C38.6764 59.864 39.0425 60.7459 39.6941 61.3962C40.3457 62.0464 41.2296 62.4117 42.1511 62.4117ZM59.5247 62.4117C60.2119 62.4117 60.8837 62.2084 61.4551 61.8274C62.0265 61.4464 62.4719 60.9049 62.7349 60.2713C62.9979 59.6377 63.0667 58.9406 62.9326 58.268C62.7985 57.5954 62.4676 56.9776 61.9817 56.4926C61.4957 56.0077 60.8766 55.6775 60.2025 55.5437C59.5285 55.4099 58.8299 55.4786 58.1949 55.741C57.56 56.0035 57.0173 56.4479 56.6355 57.0181C56.2537 57.5883 56.0499 58.2586 56.0499 58.9444C56.0499 59.864 56.416 60.7459 57.0677 61.3962C57.7193 62.0464 58.6031 62.4117 59.5247 62.4117ZM24.7775 48.5424C25.4648 48.5424 26.1366 48.3391 26.708 47.9581C27.2794 47.5771 27.7248 47.0356 27.9878 46.402C28.2508 45.7684 28.3196 45.0713 28.1855 44.3987C28.0514 43.7261 27.7205 43.1083 27.2345 42.6234C26.7486 42.1385 26.1295 41.8082 25.4554 41.6744C24.7814 41.5406 24.0828 41.6093 23.4478 41.8717C22.8129 42.1342 22.2702 42.5786 21.8884 43.1488C21.5066 43.719 21.3028 44.3894 21.3028 45.0751C21.3028 45.9947 21.6689 46.8766 22.3206 47.5269C22.9722 48.1771 23.856 48.5424 24.7775 48.5424ZM66.4741 13.8693H62.9994V10.4019C62.9994 9.48236 62.6333 8.60043 61.9817 7.95019C61.33 7.29994 60.4462 6.93463 59.5247 6.93463C58.6031 6.93463 57.7193 7.29994 57.0677 7.95019C56.416 8.60043 56.0499 9.48236 56.0499 10.4019V13.8693H28.2523V10.4019C28.2523 9.48236 27.8862 8.60043 27.2345 7.95019C26.5829 7.29994 25.6991 6.93463 24.7775 6.93463C23.856 6.93463 22.9722 7.29994 22.3206 7.95019C21.6689 8.60043 21.3028 9.48236 21.3028 10.4019V13.8693H17.8281C15.0635 13.8693 12.4121 14.9652 10.4571 16.9159C8.50225 18.8667 7.40399 21.5125 7.40399 24.2712V65.879C7.40399 68.6378 8.50225 71.2836 10.4571 73.2343C12.4121 75.1851 15.0635 76.281 17.8281 76.281H66.4741C69.2387 76.281 71.8902 75.1851 73.8451 73.2343C75.8 71.2836 76.8982 68.6378 76.8982 65.879V24.2712C76.8982 21.5125 75.8 18.8667 73.8451 16.9159C71.8902 14.9652 69.2387 13.8693 66.4741 13.8693ZM69.9488 65.879C69.9488 66.7986 69.5827 67.6806 68.9311 68.3308C68.2794 68.9811 67.3956 69.3464 66.4741 69.3464H17.8281C16.9066 69.3464 16.0228 68.9811 15.3711 68.3308C14.7195 67.6806 14.3534 66.7986 14.3534 65.879V34.6732H69.9488V65.879ZM69.9488 27.7385H14.3534V24.2712C14.3534 23.3516 14.7195 22.4697 15.3711 21.8195C16.0228 21.1692 16.9066 20.8039 17.8281 20.8039H66.4741C67.3956 20.8039 68.2794 21.1692 68.9311 21.8195C69.5827 22.4697 69.9488 23.3516 69.9488 24.2712V27.7385ZM24.7775 62.4117C25.4648 62.4117 26.1366 62.2084 26.708 61.8274C27.2794 61.4464 27.7248 60.9049 27.9878 60.2713C28.2508 59.6377 28.3196 58.9406 28.1855 58.268C28.0514 57.5954 27.7205 56.9776 27.2345 56.4926C26.7486 56.0077 26.1295 55.6775 25.4554 55.5437C24.7814 55.4099 24.0828 55.4786 23.4478 55.741C22.8129 56.0035 22.2702 56.4479 21.8884 57.0181C21.5066 57.5883 21.3028 58.2586 21.3028 58.9444C21.3028 59.864 21.6689 60.7459 22.3206 61.3962C22.9722 62.0464 23.856 62.4117 24.7775 62.4117Z" fill="#F7F7F7"/>
</svg>
